<svg xmlns="http://www.w3.org/2000/svg" viewBox="0 0 181.48 184.57"><defs><style>.cls-1{fill:#f5c228;}.cls-2{fill:#fce7b4;}.cls-3{fill:#78341e;}</style></defs><title>puff_bear</title><g id="圖層_2" data-name="圖層 2"><g id="吉祥物們"><g id="粉撲熊"><path class="cls-1" d="M170.79,89.33A80.05,80.05,0,1,1,15.42,62.19c.1-.27.2-.53.29-.81H165.77c.1.28.2.54.29.81A79.53,79.53,0,0,1,170.79,89.33Z"/><path class="cls-2" d="M165.77,61.38H15.71c.1-.27.21-.54.32-.8a80.06,80.06,0,0,1,149.42,0C165.56,60.84,165.68,61.11,165.77,61.38Z"/><path class="cls-3" d="M100.71,75.48,96,79.41l-4.76,3.93a3,3,0,0,0-.45.49,2.57,2.57,0,0,0-.44-.49l-4.77-3.93-4.76-3.93c-1.67-1.37-3.75.35-3.75,3.1V94.29c0,2.75,2.08,4.47,3.75,3.09l4.76-3.92,4.77-3.93a2.57,2.57,0,0,0,.44-.49,3,3,0,0,0,.45.49L96,93.46l4.76,3.92c1.67,1.38,3.75-.34,3.75-3.09V78.58C104.46,75.83,102.38,74.11,100.71,75.48Z"/><circle class="cls-2" cx="65.54" cy="12.69" r="12.69"/><circle class="cls-2" cx="115.94" cy="12.69" r="12.69"/><circle class="cls-3" cx="71.89" cy="50.44" r="3.43"/><circle class="cls-3" cx="110.26" cy="50.44" r="3.43"/><rect class="cls-3" x="66.18" y="20.96" width="11.43" height="22.87" rx="5.72" transform="translate(27.51 97.57) rotate(-80)"/><rect class="cls-3" x="98.83" y="26.68" width="22.87" height="11.43" rx="5.72" transform="translate(-3.95 19.64) rotate(-10)"/><path class="cls-3" d="M166.06,62.19H15.42c.1-.27.2-.53.29-.81s.21-.54.32-.8H165.45c.11.26.23.53.32.8S166,61.92,166.06,62.19Z"/><rect class="cls-1" x="52.85" y="154.17" width="12.37" height="30.4" rx="6.19"/><rect class="cls-1" x="116.26" y="154.17" width="12.37" height="30.4" rx="6.19"/><rect class="cls-1" x="4.51" y="53.87" width="12.37" height="30.4" rx="6.19" transform="translate(-33.1 14.6) rotate(-30)"/><rect class="cls-1" x="155.59" y="62.88" width="30.4" height="12.37" rx="6.19" transform="matrix(0.5, -0.87, 0.87, 0.5, 25.58, 182.44)"/></g></g></g></svg>